<?xml version="1.0" encoding="utf-8"?>
<!-- Generator: Adobe Illustrator 19.1.0, SVG Export Plug-In . SVG Version: 6.00 Build 0)  -->
<svg version="1.1" id="Layer_1" xmlns="http://www.w3.org/2000/svg" xmlns:xlink="http://www.w3.org/1999/xlink" x="0px" y="0px"
	 viewBox="0 0 384.6 384.6" style="enable-background:new 0 0 384.6 384.6;" xml:space="preserve">
<style type="text/css">
	.st0{fill:#00CD33;}
	.st1{fill:#00CD33;stroke:#FFFFFF;stroke-width:2;stroke-miterlimit:10;}
</style>
<path class="st0" d="M192.3,384.6c-51.4,0-99.7-20-136-56.3C20,292,0,243.7,0,192.3c0-50.7,19.6-98.6,55.2-134.8
	C90.7,21.3,138.1,0.9,188.7,0l0.2,0l6.7,0l0.1,0c49.8,0.9,96.7,20.7,132.1,55.8c35.6,35.4,55.8,82.5,56.8,132.7l0,0.1l-0.1,10.2
	c-1.7,50-22.4,96.7-58.4,131.6C290.1,365.4,242.6,384.6,192.3,384.6z M189,18.2c-45.8,0.9-88.7,19.3-120.9,52
	c-32.2,32.8-50,76.1-50,122.1c0,46.5,18.1,90.3,51,123.2s76.6,51,123.2,51c45.5,0,88.5-17.4,121.2-49.1
	c32.6-31.5,51.3-73.8,52.9-119l0.1-9.6c-0.9-45.4-19.2-88-51.4-120C283,36.9,240.5,19,195.5,18.2L189,18.2z"/>
<g>
	<path class="st1" d="M138.6,131.3c40.9-36.3,98-63.1,153.4-62.6l28.1,16.4c5.3,3.1,8.1,8.4,7.8,14.5l-1.9,31.5
		c-0.1,2.2-1.5,4-3.6,4.7l-71.2,23.9c-1.4,0.5-2.8,0.4-4.1-0.3l-39.4-19.8c-3.4-1.7-7.2-1.6-10.5,0.5c-10.4,6.6-20.7,14.2-30.5,22.9
		c-9.8,8.7-18.6,18-26.4,27.6c-2.4,3-3.1,6.7-1.8,10.4l14.9,41.5c0.5,1.4,0.4,2.8-0.2,4.1l-32.3,67.8c-1,2-2.9,3.2-5.1,3.1
		l-31.4-1.9c-6.1-0.4-11.1-3.9-13.5-9.5L57.9,276C64.1,221,97.6,167.6,138.6,131.3L138.6,131.3z"/>
	<path class="st1" d="M138.6,131.3c40.9-36.3,98-63.1,153.4-62.6l28.1,16.4c2.5,1.5,4.4,3.4,5.8,5.7l-87.6,29.4
		c-26.5,8.9-50.8,24.3-71.7,42.7c-20.9,18.5-39.1,40.7-51.1,66l-39.7,83.4c-2.1-1.6-3.8-3.8-5-6.4L57.9,276
		C64.1,221,97.6,167.6,138.6,131.3z"/>
</g>
<path class="st0" d="M247.4,183.4c-39.3,0-71.2,31.9-71.2,71.2c0,39.3,31.9,71.2,71.2,71.2s71.2-31.9,71.2-71.2
	C318.5,215.3,286.7,183.4,247.4,183.4z M232.3,300.2l-43.5-43.4l17.7-17.7l25.8,25.8l55.8-55.8l17.7,17.7L232.3,300.2z"/>
</svg>
