<?xml version="1.0" encoding="utf-8"?>
<!-- Generator: Adobe Illustrator 15.1.0, SVG Export Plug-In . SVG Version: 6.00 Build 0)  -->
<!DOCTYPE svg PUBLIC "-//W3C//DTD SVG 1.1//EN" "http://www.w3.org/Graphics/SVG/1.1/DTD/svg11.dtd">
<svg version="1.1" id="Ebene_1" xmlns="http://www.w3.org/2000/svg" xmlns:xlink="http://www.w3.org/1999/xlink" x="0px" y="0px"
	 width="100px" height="100px" viewBox="0 0 100 100" enable-background="new 0 0 100 100" xml:space="preserve">
<path id="curve0_188_" display="none" fill="#CD0000" d="M50,99C22.94,99,1,77.059,1,50C1,22.94,22.94,1,50,1
	c27.061,0,49,21.94,49,49C99,77.059,77.061,99,50,99z M8,50c0,23.198,18.802,42,42,42c23.199,0,42-18.802,42-42S73.199,8,50,8
	C26.802,8,8,26.802,8,50z"/>
<g display="none">
	<path id="curve0_187_" display="inline" fill="#00CD33" d="M50,99C22.94,99,1,77.059,1,50C1,22.94,22.94,1,50,1
		c27.061,0,49.002,21.94,49.002,49C99.002,77.059,77.061,99,50,99z M8,50c0,23.198,18.802,42,42,42
		c23.199,0,42.002-18.802,42.002-42S73.199,8,50,8C26.802,8,8,26.802,8,50z"/>
	<path id="curve0_186_" display="inline" fill="#00CD33" d="M40.431,53.589l29.411-29.412c0.926-0.927,2.453-0.927,3.381,0
		l8.582,8.583c0.928,0.928,0.928,2.453,0,3.38L42.12,75.823c-0.926,0.927-2.451,0.927-3.379,0L18.196,55.279
		c-0.928-0.927-0.928-2.452,0-3.38l8.582-8.582c0.928-0.928,2.453-0.928,3.38,0L40.431,53.589z"/>
</g>
<g>
	<path id="curve0_185_" fill="#00CD33" d="M50,99C22.939,99,1,77.059,1,50C1,22.94,22.939,1,50,1c27.059,0,49,21.94,49,49
		C99,77.059,77.059,99,50,99z M8,50c0,23.198,18.801,42,42,42c23.197,0,42-18.802,42-42S73.197,8,50,8C26.801,8,8,26.802,8,50z"/>
	<circle fill="#00CD33" cx="50" cy="50" r="37.5"/>
</g>
<g display="none">
	<path id="curve0_184_" display="inline" fill="#FFC400" d="M50,99C22.94,99,1,77.059,1,50C1,22.94,22.94,1,50,1
		c27.061,0,49,21.94,49,49C99,77.059,77.061,99,50,99z M8,50c0,23.198,18.802,42,42,42c23.199,0,42-18.802,42-42S73.199,8,50,8
		C26.802,8,8,26.802,8,50z"/>
	<path display="inline" fill="#FFC400" d="M49.996,12.5v37.477L76.5,23.473C69.715,16.693,60.346,12.5,49.996,12.5z"/>
</g>
<g display="none">
	<path display="inline" fill="#FFC400" d="M87.496,50c0-20.711-16.791-37.5-37.5-37.5V50H87.496z"/>
	<path id="curve0_183_" display="inline" fill="#FFC400" d="M50,99C22.94,99,1,77.059,1,50C1,22.94,22.94,1,50,1
		c27.061,0,49,21.94,49,49C99,77.059,77.061,99,50,99z M8,50c0,23.198,18.802,42,42,42c23.199,0,42-18.802,42-42S73.199,8,50,8
		C26.802,8,8,26.802,8,50z"/>
</g>
<g display="none">
	<path id="curve0_182_" display="inline" fill="#FFC400" d="M50,99C22.94,99,1,77.059,1,50C1,22.94,22.94,1,50,1
		c27.061,0,49,21.94,49,49C99,77.059,77.061,99,50,99z M8,50c0,23.198,18.802,42,42,42c23.199,0,42-18.802,42-42S73.199,8,50,8
		C26.802,8,8,26.802,8,50z"/>
	<path display="inline" fill="#FFC400" d="M87.496,49.998v-0.002l0,0C87.494,29.287,70.705,12.5,49.996,12.5V50h0.027l26.5,26.502
		C83.303,69.716,87.496,60.348,87.496,50l0,0V49.998z"/>
</g>
<g display="none">
	<path display="inline" fill="#FFC400" d="M87.496,50c0-20.711-16.789-37.5-37.5-37.5v75C70.707,87.5,87.496,70.71,87.496,50z"/>
	<path id="curve0_181_" display="inline" fill="#FFC400" d="M50,99C22.94,99,1,77.059,1,50C1,22.94,22.94,1,50,1
		c27.061,0,49,21.94,49,49C99,77.059,77.061,99,50,99z M8,50c0,23.198,18.802,42,42,42c23.199,0,42-18.802,42-42S73.199,8,50,8
		C26.802,8,8,26.802,8,50z"/>
</g>
<g display="none">
	<path id="curve0_180_" display="inline" fill="#FFC400" d="M50,99C22.94,99,1,77.059,1,50C1,22.94,22.94,1,50,1
		c27.061,0,49,21.94,49,49C99,77.059,77.061,99,50,99z M8,50c0,23.198,18.802,42,42,42c23.199,0,42-18.802,42-42S73.199,8,50,8
		C26.802,8,8,26.802,8,50z"/>
	<path display="inline" fill="#FFC400" d="M87.496,50c0-20.711-16.789-37.5-37.5-37.5v37.58L23.548,76.527
		C30.32,83.295,39.67,87.484,49.996,87.5l0,0c0.01,0,0.019,0,0.028,0c0.009,0,0.018,0,0.027,0l0,0
		C70.738,87.469,87.496,70.691,87.496,50z"/>
</g>
<g display="none">
	<path display="inline" fill="#FFC400" d="M87.496,50c0-20.711-16.789-37.5-37.5-37.5V50H12.552
		c0,20.692,16.761,37.469,37.444,37.499V87.5c0.01,0,0.019-0.001,0.028-0.001c0.009,0,0.018,0.001,0.027,0.001v-0.001
		C70.738,87.469,87.496,70.69,87.496,50z"/>
	<path id="curve0_179_" display="inline" fill="#FFC400" d="M50,99C22.94,99,1,77.059,1,50C1,22.939,22.94,1,50,1
		c27.061,0,49,21.939,49,49C99,77.059,77.061,99,50,99z M8,50c0,23.197,18.802,42,42,42c23.199,0,42-18.803,42-42
		C92,26.801,73.199,8,50,8C26.802,8,8,26.801,8,50z"/>
</g>
<g display="none">
	<path id="curve0_178_" display="inline" fill="#FFC400" d="M50,99C22.94,99,1,77.059,1,50C1,22.939,22.94,1,50,1
		c27.061,0,49,21.939,49,49C99,77.059,77.061,99,50,99z M8,50c0,23.197,18.802,42,42,42c23.199,0,42-18.803,42-42
		C92,26.801,73.199,8,50,8C26.802,8,8,26.801,8,50z"/>
	<path display="inline" fill="#FFC400" d="M87.496,50c0-20.711-16.789-37.5-37.5-37.5V50h-0.113L23.524,23.642
		C16.777,30.395,12.595,39.709,12.556,50h-0.004c0,0.024,0.002,0.049,0.002,0.072c0,0.025-0.002,0.049-0.002,0.073h0.004
		c0.079,20.625,16.806,37.323,37.44,37.354V87.5c0.01,0,0.019-0.001,0.027-0.001c0.01,0,0.019,0.001,0.028,0.001v-0.001
		C70.738,87.469,87.496,70.69,87.496,50z"/>
</g>
</svg>
