<?xml version="1.0" encoding="utf-8"?>
<!-- Generator: Adobe Illustrator 19.1.0, SVG Export Plug-In . SVG Version: 6.00 Build 0)  -->
<svg version="1.1" id="Layer_1" xmlns="http://www.w3.org/2000/svg" xmlns:xlink="http://www.w3.org/1999/xlink" x="0px" y="0px"
	 viewBox="0 0 384.6 384.6" style="enable-background:new 0 0 384.6 384.6;" xml:space="preserve">
<style type="text/css">
	.st0{fill:#FFC400;}
	.st1{fill:#FFC400;stroke:#FFFFFF;stroke-width:2;stroke-miterlimit:10;}
</style>
<path class="st0" d="M247.4,183.4c-39.3,0-71.2,31.9-71.2,71.2c0,39.3,31.9,71.2,71.2,71.2s71.2-31.9,71.2-71.2
	C318.5,215.3,286.7,183.4,247.4,183.4z M257.2,311.4c-2.7,2.6-6,3.8-9.9,3.8c-3.9,0-7.1-1.3-9.9-3.8c-2.7-2.6-4.1-5.8-4.1-9.6
	c0-3.9,1.4-7.1,4.1-9.9c2.7-2.7,6-4.1,9.9-4.1c3.9,0,7.1,1.4,9.9,4.1c2.7,2.7,4.1,6,4.1,9.9C261.3,305.7,260,308.9,257.2,311.4z
	 M261.3,213.6c-0.2,2.3-0.7,5.9-1.5,10.7c-0.8,4.8-2,11.3-3.6,19.5c-1.6,8.2-3.7,18.9-6.5,32.3H245c-2.7-13.4-4.9-24.2-6.5-32.3
	c-1.6-8.2-2.8-14.7-3.6-19.5c-0.8-4.8-1.3-8.4-1.5-10.7c-0.2-2.3-0.3-4.3-0.3-6c0-4.1,1.3-7.4,3.9-9.9c2.6-2.5,6.1-3.7,10.4-3.7
	c4.3,0,7.8,1.3,10.4,3.7c2.6,2.5,3.9,5.8,3.9,9.9C261.7,209.3,261.5,211.3,261.3,213.6z"/>
<path class="st0" d="M192.3,384.6c-51.4,0-99.7-20-136-56.3C20,292,0,243.7,0,192.3c0-50.7,19.6-98.6,55.2-134.8
	C90.7,21.3,138.1,0.9,188.7,0l0.2,0l6.7,0l0.1,0c49.8,0.9,96.7,20.7,132.1,55.8c35.6,35.4,55.8,82.5,56.8,132.7l0,0.1l-0.1,10.2
	c-1.7,50-22.4,96.7-58.4,131.6C290.1,365.4,242.6,384.6,192.3,384.6z M189,18.2c-45.8,0.9-88.7,19.3-120.9,52
	c-32.2,32.8-50,76.1-50,122.1c0,46.5,18.1,90.3,51,123.2s76.6,51,123.2,51c45.5,0,88.5-17.4,121.2-49.1
	c32.6-31.5,51.3-73.8,52.9-119l0.1-9.6c-0.9-45.4-19.2-88-51.4-120C283,36.9,240.5,19,195.5,18.2L189,18.2z"/>
<g>
	<path class="st1" d="M138.3,130.9c41.3-36.6,98.8-63.6,154.7-63.1l28.3,16.5c5.3,3.1,8.2,8.5,7.9,14.6l-1.9,31.7
		c-0.1,2.2-1.5,4-3.7,4.7l-71.8,24.1c-1.4,0.5-2.8,0.4-4.1-0.3l-39.8-20c-3.4-1.8-7.3-1.6-10.6,0.5c-10.5,6.6-20.9,14.3-30.8,23.1
		c-9.9,8.8-18.8,18.1-26.7,27.8c-2.5,3-3.1,6.8-1.8,10.4l15,41.9c0.5,1.4,0.4,2.8-0.2,4.2l-32.5,68.3c-1,2-2.9,3.2-5.2,3.1
		l-31.7-1.9c-6.2-0.4-11.2-3.9-13.6-9.5l-13-30.1C63.2,221.4,97,167.5,138.3,130.9L138.3,130.9z"/>
	<path class="st1" d="M138.3,130.9c41.3-36.6,98.8-63.6,154.7-63.1l28.3,16.5c2.5,1.5,4.5,3.5,5.8,5.8l-88.3,29.6
		c-26.7,8.9-51.2,24.5-72.3,43.1c-21,18.6-39.4,41.1-51.5,66.5l-40.1,84.1c-2.1-1.6-3.9-3.8-5-6.5l-13-30.1
		C63.2,221.4,97,167.5,138.3,130.9z"/>
</g>
</svg>
