<?xml version="1.0" encoding="utf-8"?>
<!-- Generator: Adobe Illustrator 19.1.0, SVG Export Plug-In . SVG Version: 6.00 Build 0)  -->
<svg version="1.1" id="Layer_1" xmlns="http://www.w3.org/2000/svg" xmlns:xlink="http://www.w3.org/1999/xlink" x="0px" y="0px"
	 viewBox="-94 218.3 405.6 405.6" style="enable-background:new -94 218.3 405.6 405.6;" xml:space="preserve">
<style type="text/css">
	.st0{fill:#00CD33;}
	.st1{fill:#00CD33;stroke:#FFFFFF;stroke-width:2;stroke-miterlimit:10;}
	.st2{fill:none;stroke:#FFFFFF;stroke-width:8;stroke-miterlimit:10;}
</style>
<g>
	<path id="curve0_204_" class="st0" d="M108.8,623.9C-3.4,623.9-94,533.3-94,421.1s90.6-202.8,202.8-202.8s202.8,90.6,202.8,202.8
		C311.6,532.8,221,623.9,108.8,623.9z M-65,421.1c0,96,77.8,173.8,173.8,173.8s173.8-77.8,173.8-173.8s-77.8-173.8-173.8-173.8
		S-65,325.1-65,421.1z"/>
	<path class="st0" d="M54.5,359.4c40.9-36.3,98-63.1,153.4-62.6l28.1,16.4c5.3,3.1,8.1,8.4,7.8,14.5l-1.9,31.5
		c-0.1,2.2-1.5,4-3.6,4.7L167,387.7c-1.4,0.5-2.8,0.4-4.1-0.3l-39.4-19.8c-3.4-1.7-7.2-1.6-10.5,0.5c-10.4,6.6-20.7,14.2-30.5,22.9
		s-18.6,18-26.4,27.6c-2.4,3-3.1,6.7-1.8,10.4l14.9,41.5c0.5,1.4,0.4,2.8-0.2,4.1l-32.3,67.7c-1,2-2.9,3.2-5.1,3.1l-31.4-1.9
		c-6.1-0.4-11.1-3.9-13.5-9.5l-12.8-29.9C-20,449.1,13.5,395.7,54.5,359.4L54.5,359.4z"/>
	<path class="st1" d="M54.5,359.4c40.9-36.3,98-63.1,153.4-62.6l28.1,16.4c2.5,1.5,4.4,3.4,5.8,5.7l-87.7,29.4
		c-26.5,8.9-50.8,24.3-71.7,42.7c-20.9,18.5-39.1,40.7-51.1,66l-39.7,83.4c-2.1-1.6-3.8-3.8-5-6.4l-12.8-29.9
		C-20,449.1,13.5,395.7,54.5,359.4z"/>
	<path class="st0" d="M227.1,530.4H93.8c-7,0-12.6-5.6-12.6-12.6v-51.2c0-7,5.6-12.6,12.6-12.6h133.4c7,0,12.6,5.6,12.6,12.6v51.2
		C239.7,524.7,234.1,530.4,227.1,530.4z"/>
	<circle class="st2" cx="125" cy="492.2" r="22.6"/>
	<circle class="st2" cx="196" cy="492.2" r="22.6"/>
	<line class="st2" x1="122.8" y1="514.9" x2="195.8" y2="514.9"/>
</g>
</svg>
