<?xml version="1.0" encoding="utf-8"?>
<!-- Generator: Adobe Illustrator 15.1.0, SVG Export Plug-In . SVG Version: 6.00 Build 0)  -->
<!DOCTYPE svg PUBLIC "-//W3C//DTD SVG 1.1//EN" "http://www.w3.org/Graphics/SVG/1.1/DTD/svg11.dtd">
<svg version="1.1" id="Ebene_1" xmlns="http://www.w3.org/2000/svg" xmlns:xlink="http://www.w3.org/1999/xlink" x="0px" y="0px"
	 width="100px" height="100px" viewBox="0 0 100 100" enable-background="new 0 0 100 100" xml:space="preserve">
<g>
	<path id="curve0_202_" fill="#CD0000" d="M41.521,16.98h19.221c0.98,0,1.794,0.488,2.284,1.322
		c0.474,0.848,0.459,1.809-0.031,2.626L49.695,43.087h11.438c0.929,0,1.729,0.44,2.219,1.24c0.49,0.785,0.538,1.698,0.114,2.546
		l-8.551,17.101h3.721c1.093,0,2.04,0.637,2.431,1.665c0.392,1.027,0.147,2.136-0.668,2.871l-15.11,13.821
		c-0.653,0.586-1.485,0.815-2.35,0.62c-0.849-0.195-1.501-0.752-1.844-1.566l-5.613-13.82c-0.325-0.833-0.245-1.698,0.261-2.432
		c0.505-0.752,1.272-1.159,2.17-1.159h6.561l5.222-10.442H37.033c-0.785,0-1.453-0.311-1.958-0.899
		c-0.522-0.586-0.735-1.304-0.621-2.086l4.471-31.33C39.121,17.926,40.214,16.98,41.521,16.98z"/>
	<path id="curve0_204_" fill="#CD0000" d="M50,99C22.94,99,1,77.059,1,50C1,22.939,22.94,1,50,1s49.001,21.939,49.001,49
		C99.001,77.059,77.06,99,50,99z M8,50c0,23.197,18.802,42,42,42s42.001-18.803,42.001-42C92.001,26.801,73.198,8,50,8
		S8,26.801,8,50z"/>
</g>
</svg>
